<svg width="25" height="24" viewBox="0 0 25 24" fill="none" xmlns="http://www.w3.org/2000/svg">
<g id="ph:lightbulb">
<path id="Vector" d="M17.25 21.75C17.25 21.9489 17.171 22.1397 17.0303 22.2803C16.8897 22.421 16.6989 22.5 16.5 22.5H9C8.80109 22.5 8.61032 22.421 8.46967 22.2803C8.32902 22.1397 8.25 21.9489 8.25 21.75C8.25 21.5511 8.32902 21.3603 8.46967 21.2197C8.61032 21.079 8.80109 21 9 21H16.5C16.6989 21 16.8897 21.079 17.0303 21.2197C17.171 21.3603 17.25 21.5511 17.25 21.75ZM21 9.75002C21.0032 11.0003 20.7208 12.2348 20.1742 13.3593C19.6276 14.4838 18.8314 15.4686 17.8463 16.2385C17.662 16.3797 17.5126 16.5611 17.4092 16.7689C17.3059 16.9767 17.2514 17.2054 17.25 17.4375V18C17.25 18.3978 17.092 18.7794 16.8107 19.0607C16.5294 19.342 16.1478 19.5 15.75 19.5H9.75C9.35218 19.5 8.97065 19.342 8.68934 19.0607C8.40804 18.7794 8.25 18.3978 8.25 18V17.4375C8.24985 17.2082 8.19712 16.982 8.09587 16.7762C7.99462 16.5705 7.84754 16.3907 7.66594 16.2506C6.68325 15.4853 5.88754 14.5065 5.33904 13.3882C4.79054 12.2699 4.50362 11.0415 4.5 9.79595C4.47563 5.32783 8.08688 1.60689 12.5513 1.50001C13.6513 1.47351 14.7455 1.66731 15.7695 2.07003C16.7934 2.47275 17.7265 3.07624 18.5138 3.84497C19.3011 4.61371 19.9266 5.53217 20.3535 6.54628C20.7805 7.5604 21.0003 8.64968 21 9.75002ZM19.5 9.75002C19.5003 8.8497 19.3204 7.95842 18.971 7.12866C18.6217 6.29889 18.1098 5.54741 17.4657 4.91843C16.8215 4.28946 16.058 3.7957 15.2201 3.46624C14.3822 3.13678 13.4869 2.97826 12.5869 3.00001C8.93063 3.08626 5.98031 6.13033 6 9.78658C6.00343 10.8053 6.2385 11.8098 6.68743 12.7242C7.13635 13.6387 7.78738 14.439 8.59125 15.0647C8.9526 15.3456 9.24489 15.7055 9.44574 16.1168C9.64658 16.528 9.75066 16.9798 9.75 17.4375V18H15.75V17.4375C15.751 16.9785 15.8569 16.5258 16.0595 16.1139C16.2621 15.7021 16.5561 15.3419 16.9191 15.061C17.7254 14.4308 18.3771 13.6247 18.8244 12.7043C19.2717 11.7839 19.5028 10.7734 19.5 9.75002ZM17.9897 8.87439C17.7952 7.7881 17.2726 6.78748 16.4922 6.00723C15.7118 5.22698 14.711 4.70457 13.6247 4.51033C13.5276 4.49395 13.4281 4.49687 13.3321 4.51892C13.2361 4.54096 13.1454 4.5817 13.0651 4.63881C12.9849 4.69592 12.9166 4.76828 12.8643 4.85175C12.812 4.93523 12.7767 5.02819 12.7603 5.12533C12.7439 5.22246 12.7469 5.32188 12.7689 5.41788C12.7909 5.51389 12.8317 5.60462 12.8888 5.68489C12.9459 5.76515 13.0183 5.83338 13.1017 5.88568C13.1852 5.93798 13.2782 5.97333 13.3753 5.9897C14.9288 6.25126 16.2469 7.56939 16.5103 9.12564C16.54 9.30032 16.6306 9.45885 16.7659 9.57313C16.9013 9.68742 17.0728 9.75008 17.25 9.75002C17.2924 9.74976 17.3347 9.74631 17.3766 9.7397C17.5726 9.70623 17.7473 9.59627 17.8623 9.434C17.9773 9.27173 18.0231 9.07044 17.9897 8.87439Z" fill="#FF6B00"/>
</g>
</svg>
