<svg width="25" height="24" viewBox="0 0 25 24" fill="none" xmlns="http://www.w3.org/2000/svg">
<g id="majesticons:clipboard-line">
<path id="Vector" d="M8.75 5H6.75C6.21957 5 5.71086 5.21071 5.33579 5.58579C4.96071 5.96086 4.75 6.46957 4.75 7V19C4.75 19.5304 4.96071 20.0391 5.33579 20.4142C5.71086 20.7893 6.21957 21 6.75 21H18.75C19.2804 21 19.7891 20.7893 20.1642 20.4142C20.5393 20.0391 20.75 19.5304 20.75 19V7C20.75 6.46957 20.5393 5.96086 20.1642 5.58579C19.7891 5.21071 19.2804 5 18.75 5H16.75M8.75 5C8.75 4.46957 8.96071 3.96086 9.33579 3.58579C9.71086 3.21071 10.2196 3 10.75 3H14.75C15.2804 3 15.7891 3.21071 16.1642 3.58579C16.5393 3.96086 16.75 4.46957 16.75 5M8.75 5C8.75 5.53043 8.96071 6.03914 9.33579 6.41421C9.71086 6.78929 10.2196 7 10.75 7H14.75C15.2804 7 15.7891 6.78929 16.1642 6.41421C16.5393 6.03914 16.75 5.53043 16.75 5" stroke="#CCCCCC" stroke-width="2" stroke-linecap="round" stroke-linejoin="round"/>
</g>
</svg>
