<svg width="25" height="24" viewBox="0 0 25 24" fill="none" xmlns="http://www.w3.org/2000/svg">
<g id="ph:lightbulb">
<path id="Vector" d="M17.25 21.75C17.25 21.9489 17.171 22.1396 17.0303 22.2803C16.8897 22.4209 16.6989 22.5 16.5 22.5H9C8.80109 22.5 8.61032 22.4209 8.46967 22.2803C8.32902 22.1396 8.25 21.9489 8.25 21.75C8.25 21.551 8.32902 21.3603 8.46967 21.2196C8.61032 21.079 8.80109 21 9 21H16.5C16.6989 21 16.8897 21.079 17.0303 21.2196C17.171 21.3603 17.25 21.551 17.25 21.75ZM21 9.74995C21.0032 11.0002 20.7208 12.2347 20.1742 13.3592C19.6276 14.4837 18.8314 15.4685 17.8463 16.2384C17.662 16.3796 17.5126 16.561 17.4092 16.7688C17.3059 16.9767 17.2514 17.2054 17.25 17.4375V18C17.25 18.3978 17.092 18.7793 16.8107 19.0606C16.5294 19.3419 16.1478 19.5 15.75 19.5H9.75C9.35218 19.5 8.97065 19.3419 8.68934 19.0606C8.40804 18.7793 8.25 18.3978 8.25 18V17.4375C8.24985 17.2081 8.19712 16.9819 8.09587 16.7762C7.99462 16.5704 7.84754 16.3906 7.66594 16.2506C6.68325 15.4852 5.88754 14.5064 5.33904 13.3881C4.79054 12.2698 4.50362 11.0414 4.5 9.79589C4.47563 5.32777 8.08688 1.60683 12.5513 1.49995C13.6513 1.47345 14.7455 1.66725 15.7695 2.06997C16.7934 2.47269 17.7265 3.07617 18.5138 3.84491C19.3011 4.61365 19.9266 5.53211 20.3535 6.54622C20.7805 7.56034 21.0003 8.64962 21 9.74995ZM19.5 9.74995C19.5003 8.84964 19.3204 7.95836 18.971 7.1286C18.6217 6.29883 18.1098 5.54735 17.4657 4.91837C16.8215 4.2894 16.058 3.79564 15.2201 3.46618C14.3822 3.13671 13.4869 2.9782 12.5869 2.99995C8.93063 3.0862 5.98031 6.13027 6 9.78652C6.00343 10.8052 6.2385 11.8097 6.68743 12.7242C7.13635 13.6386 7.78738 14.4389 8.59125 15.0646C8.9526 15.3456 9.24489 15.7054 9.44574 16.1167C9.64658 16.528 9.75066 16.9798 9.75 17.4375V18H15.75V17.4375C15.751 16.9785 15.8569 16.5258 16.0595 16.1139C16.2621 15.702 16.5561 15.3419 16.9191 15.0609C17.7254 14.4307 18.3771 13.6247 18.8244 12.7042C19.2717 11.7838 19.5028 10.7733 19.5 9.74995ZM17.9897 8.87433C17.7952 7.78804 17.2726 6.78742 16.4922 6.00717C15.7118 5.22692 14.711 4.70451 13.6247 4.51027C13.5276 4.49389 13.4281 4.49681 13.3321 4.51886C13.2361 4.5409 13.1454 4.58164 13.0651 4.63875C12.9849 4.69586 12.9166 4.76821 12.8643 4.85169C12.812 4.93517 12.7767 5.02813 12.7603 5.12527C12.7439 5.2224 12.7469 5.32181 12.7689 5.41782C12.7909 5.51383 12.8317 5.60456 12.8888 5.68482C12.9459 5.76509 13.0183 5.83332 13.1017 5.88562C13.1852 5.93792 13.2782 5.97327 13.3753 5.98964C14.9288 6.2512 16.2469 7.56933 16.5103 9.12558C16.54 9.30026 16.6306 9.45879 16.7659 9.57307C16.9013 9.68736 17.0728 9.75002 17.25 9.74995C17.2924 9.7497 17.3347 9.74625 17.3766 9.73964C17.5726 9.70617 17.7473 9.59621 17.8623 9.43394C17.9773 9.27167 18.0231 9.07038 17.9897 8.87433Z" fill="#CCCCCC"/>
</g>
</svg>
